<svg width="24" height="24" viewBox="0 0 24 24" fill="none" xmlns="http://www.w3.org/2000/svg">
<path d="M21.5 7H7.5C7.10218 7 6.72064 7.15804 6.43934 7.43934C6.15804 7.72064 6 8.10218 6 8.5V16.5C6 16.8978 6.15804 17.2794 6.43934 17.5607C6.72064 17.842 7.10218 18 7.5 18H15.35L19.725 20.915C19.8002 20.9645 19.8874 20.9928 19.9773 20.9969C20.0673 21.001 20.1567 20.9807 20.236 20.9382C20.3154 20.8957 20.3818 20.8325 20.4283 20.7554C20.4748 20.6783 20.4995 20.59 20.5 20.5V18H21.5C21.8978 18 22.2794 17.842 22.5607 17.5607C22.842 17.2794 23 16.8978 23 16.5V8.5C23 8.10218 22.842 7.72064 22.5607 7.43934C22.2794 7.15804 21.8978 7 21.5 7ZM10.5 13C10.3674 13 10.2402 12.9473 10.1464 12.8536C10.0527 12.7598 10 12.6326 10 12.5C10 12.3674 10.0527 12.2402 10.1464 12.1464C10.2402 12.0527 10.3674 12 10.5 12C10.6326 12 10.7598 12.0527 10.8536 12.1464C10.9473 12.2402 11 12.3674 11 12.5C11 12.6326 10.9473 12.7598 10.8536 12.8536C10.7598 12.9473 10.6326 13 10.5 13ZM12.5 13C12.3674 13 12.2402 12.9473 12.1464 12.8536C12.0527 12.7598 12 12.6326 12 12.5C12 12.3674 12.0527 12.2402 12.1464 12.1464C12.2402 12.0527 12.3674 12 12.5 12C12.6326 12 12.7598 12.0527 12.8536 12.1464C12.9473 12.2402 13 12.3674 13 12.5C13 12.6326 12.9473 12.7598 12.8536 12.8536C12.7598 12.9473 12.6326 13 12.5 13ZM14.5 13C14.3674 13 14.2402 12.9473 14.1464 12.8536C14.0527 12.7598 14 12.6326 14 12.5C14 12.3674 14.0527 12.2402 14.1464 12.1464C14.2402 12.0527 14.3674 12 14.5 12C14.6326 12 14.7598 12.0527 14.8536 12.1464C14.9473 12.2402 15 12.3674 15 12.5C15 12.6326 14.9473 12.7598 14.8536 12.8536C14.7598 12.9473 14.6326 13 14.5 13ZM16.5 13C16.3674 13 16.2402 12.9473 16.1464 12.8536C16.0527 12.7598 16 12.6326 16 12.5C16 12.3674 16.0527 12.2402 16.1464 12.1464C16.2402 12.0527 16.3674 12 16.5 12C16.6326 12 16.7598 12.0527 16.8536 12.1464C16.9473 12.2402 17 12.3674 17 12.5C17 12.6326 16.9473 12.7598 16.8536 12.8536C16.7598 12.9473 16.6326 13 16.5 13ZM18.5 13C18.3674 13 18.2402 12.9473 18.1464 12.8536C18.0527 12.7598 18 12.6326 18 12.5C18 12.3674 18.0527 12.2402 18.1464 12.1464C18.2402 12.0527 18.3674 12 18.5 12C18.6326 12 18.7598 12.0527 18.8536 12.1464C18.9473 12.2402 19 12.3674 19 12.5C19 12.6326 18.9473 12.7598 18.8536 12.8536C18.7598 12.9473 18.6326 13 18.5 13Z" fill="#182A40"/>
<path d="M5 8.5C5 7.83696 5.26339 7.20107 5.73223 6.73223C6.20107 6.26339 6.83696 6 7.5 6H18V4C18 3.60218 17.842 3.22064 17.5607 2.93934C17.2794 2.65804 16.8978 2.5 16.5 2.5H2.5C2.10218 2.5 1.72064 2.65804 1.43934 2.93934C1.15804 3.22064 1 3.60218 1 4V12C1 12.3978 1.15804 12.7794 1.43934 13.0607C1.72064 13.342 2.10218 13.5 2.5 13.5H3.5V16C3.50024 16.0905 3.52502 16.1791 3.57168 16.2566C3.61835 16.3341 3.68516 16.3975 3.765 16.44C3.84319 16.4801 3.93057 16.499 4.01835 16.4946C4.10614 16.4902 4.19121 16.4627 4.265 16.415L4.99 15.915L5 8.5Z" fill="#182A40"/>
</svg>
